<svg width="126" height="147" viewBox="0 0 126 147" fill="none" xmlns="http://www.w3.org/2000/svg">
<path d="M125.152 76.8359C125.152 90.7031 122.581 102.975 117.438 113.652C112.294 124.329 104.97 132.565 95.4648 138.359C86.0247 144.089 75.25 146.953 63.1406 146.953C51.0312 146.953 40.2891 144.186 30.9141 138.652C21.5391 133.053 14.2148 125.078 8.94141 114.727C3.73307 104.375 0.998698 92.4935 0.738281 79.082V71.0742C0.738281 57.1419 3.27734 44.8698 8.35547 34.2578C13.4987 23.5807 20.8229 15.3451 30.3281 9.55078C39.8984 3.75651 50.7708 0.859375 62.9453 0.859375C74.9896 0.859375 85.7318 3.72396 95.1719 9.45312C104.612 15.1823 111.936 23.3529 117.145 33.9648C122.418 44.5117 125.087 56.6211 125.152 70.293V76.8359ZM90.2891 70.8789C90.2891 56.7513 87.9128 46.0417 83.1602 38.75C78.4727 31.3932 71.7344 27.7148 62.9453 27.7148C45.7578 27.7148 36.6758 40.6055 35.6992 66.3867L35.6016 76.8359C35.6016 90.7682 37.9128 101.478 42.5352 108.965C47.1576 116.452 54.026 120.195 63.1406 120.195C71.7995 120.195 78.4727 116.517 83.1602 109.16C87.8477 101.803 90.224 91.224 90.2891 77.4219V70.8789Z" fill="black"/>
</svg>
